<?xml version="1.0" standalone="no"?>
<!DOCTYPE svg PUBLIC "-//W3C//DTD SVG 20010904//EN"
 "http://www.w3.org/TR/2001/REC-SVG-20010904/DTD/svg10.dtd">
<svg version="1.0" xmlns="http://www.w3.org/2000/svg"
 width="1024.000000pt" height="1024.000000pt" viewBox="0 0 1024.000000 1024.000000"
 preserveAspectRatio="xMidYMid meet">

<g transform="translate(0.000000,1024.000000) scale(0.100000,-0.100000)"
fill="#f5fbfe" stroke="none">
<path d="M0 5120 l0 -5120 5120 0 5120 0 0 5120 0 5120 -5120 0 -5120 0 0
-5120z m5540 2935 c301 -47 609 -137 835 -243 554 -260 956 -594 1276 -1057
287 -414 449 -860 524 -1440 17 -137 20 -487 5 -635 -27 -261 -95 -531 -195
-782 -11 -27 -22 -23 -84 31 -134 115 -265 187 -423 232 -57 15 -106 29 -110
29 -5 0 -8 -13 -8 -29 0 -25 7 -31 59 -55 45 -20 74 -26 128 -26 40 0 74 -5
81 -12 20 -20 14 -99 -13 -156 -49 -107 -165 -232 -282 -307 -35 -22 -63 -43
-63 -46 0 -3 28 -9 63 -12 94 -9 141 -28 145 -59 3 -24 8 -26 70 -32 161 -13
199 -16 407 -27 139 -7 223 -16 227 -23 13 -20 8 -126 -7 -156 -26 -50 -50
-60 -151 -60 l-92 0 -4 -54 c-6 -70 -41 -124 -102 -156 -25 -14 -46 -28 -46
-31 0 -4 19 -9 43 -13 72 -12 107 -47 73 -75 -28 -23 -1933 -791 -2008 -810
-26 -6 -87 -11 -136 -11 -118 0 -237 23 -1237 240 -169 37 -494 105 -630 133
l-60 12 -6 56 c-7 65 -28 101 -83 140 -31 24 -49 29 -93 29 -31 0 -71 -7 -90
-17 -34 -16 -36 -16 -46 3 -18 34 -81 87 -125 106 -68 30 -165 34 -237 9 -55
-19 -61 -19 -70 -4 -42 70 -151 153 -201 153 -10 0 -26 5 -34 10 -13 9 -13 12
3 24 24 18 21 31 -8 44 -42 19 -114 92 -152 154 l-36 58 -263 0 -262 0 -31 31
c-28 27 -31 37 -31 92 0 51 4 64 20 74 13 9 98 15 259 19 237 7 241 7 236 28
-3 12 -21 142 -40 291 -20 148 -38 271 -40 273 -18 19 -183 -83 -198 -122 -17
-42 -42 2 -102 179 -50 147 -93 321 -118 480 -31 201 -31 636 1 870 66 488
238 952 490 1320 248 362 526 640 847 847 444 287 901 445 1450 502 102 10
574 -2 675 -19z m-2900 -5207 c0 -7 -17 -29 -37 -50 -35 -36 -41 -38 -97 -38
-85 0 -120 37 -79 82 13 15 32 18 115 18 70 0 98 -3 98 -12z m313 -337 c-5
-73 -3 -93 11 -112 34 -50 31 -50 -185 -47 -197 3 -201 3 -220 26 -27 34 -41
98 -34 152 l7 48 91 10 c51 5 147 10 214 11 l123 1 -7 -89z m787 -124 c0 -50
-14 -60 -93 -72 -34 -5 -47 -13 -56 -31 -6 -14 -11 -29 -11 -34 0 -6 61 -10
148 -10 117 0 152 -3 170 -16 24 -17 30 -62 10 -82 -17 -17 -819 -17 -836 0
-17 17 -15 64 4 82 12 12 37 16 110 16 l94 0 0 74 0 73 77 7 c42 3 106 6 143
6 48 0 71 4 80 15 9 11 33 15 86 15 l74 0 0 -43z"/>
<path d="M5105 7684 c-139 -15 -255 -40 -401 -89 -197 -66 -236 -85 -283 -137
-20 -22 -49 -47 -66 -55 -119 -60 -338 -269 -434 -413 -72 -107 -151 -260
-151 -290 0 -28 36 -26 47 3 17 47 116 207 128 207 7 0 32 26 57 58 105 132
323 332 364 332 15 0 25 -9 32 -28 14 -39 65 -88 108 -102 115 -38 243 51 244
169 0 41 -20 111 -32 111 -4 0 -8 11 -8 25 0 22 9 27 93 54 196 63 465 85 687
56 270 -35 587 -143 703 -241 16 -14 42 -24 58 -24 28 0 30 2 27 32 -3 28 -13
38 -93 86 -197 118 -388 194 -570 227 -87 16 -421 28 -510 19z"/>
<path d="M3754 7494 c-14 -20 -15 -33 -8 -62 22 -87 144 -77 144 11 0 53 -24
77 -75 77 -37 0 -47 -5 -61 -26z"/>
<path d="M6691 7396 c-7 -8 -11 -27 -9 -43 3 -25 7 -28 43 -28 38 0 40 2 43
34 2 20 -2 37 -10 42 -20 13 -54 10 -67 -5z"/>
<path d="M3355 7246 c-17 -7 -45 -30 -63 -50 -29 -33 -32 -43 -32 -99 0 -50 5
-70 24 -98 63 -92 210 -92 274 1 17 26 22 47 22 96 0 57 -3 67 -32 100 -53 61
-126 79 -193 50z"/>
<path d="M7022 7064 c-17 -12 -22 -25 -22 -58 0 -52 22 -76 72 -76 44 0 68 25
68 73 0 65 -65 99 -118 61z"/>
<path d="M4614 7025 c-19 -19 -24 -34 -22 -58 4 -47 36 -48 87 -1 45 40 51 58
22 74 -32 16 -60 12 -87 -15z"/>
<path d="M2940 6755 c-252 -71 -346 -382 -174 -574 101 -113 264 -151 409 -96
61 23 79 25 140 20 54 -5 75 -3 90 8 20 15 20 16 2 84 -15 58 -16 78 -6 123
28 131 -9 258 -101 344 -98 91 -235 126 -360 91z m48 -301 c40 -28 18 -104
-30 -104 -40 0 -58 19 -58 60 0 56 41 77 88 44z m195 -15 c14 -22 1 -66 -24
-80 -51 -27 -95 22 -70 77 9 21 17 25 48 22 20 -2 40 -10 46 -19z"/>
<path d="M5386 6739 c-72 -17 -179 -81 -240 -143 -44 -46 -71 -87 -112 -172
-61 -128 -88 -154 -156 -154 -63 0 -101 28 -133 97 -63 138 -83 170 -141 228
-42 43 -85 74 -139 101 -69 34 -87 39 -170 42 -65 3 -108 0 -148 -12 -219 -64
-363 -331 -329 -610 17 -134 42 -208 138 -406 94 -196 114 -264 114 -407 l0
-91 43 -7 c47 -7 368 -69 617 -120 91 -19 237 -48 325 -64 88 -17 191 -40 228
-50 158 -46 255 -141 313 -305 8 -22 23 -121 35 -220 11 -100 31 -262 45 -361
13 -99 33 -259 45 -355 30 -260 25 -240 61 -240 25 0 29 3 23 18 -34 88 -27
185 20 275 31 57 31 57 0 57 l-26 0 3 92 3 92 40 15 c22 9 50 25 61 36 96 91
134 125 141 125 11 1 93 111 93 125 0 6 -24 19 -53 28 -62 20 -105 50 -147
102 -74 94 -63 221 29 316 45 47 50 49 87 43 38 -6 42 -3 104 58 99 97 148
180 181 306 21 84 31 107 48 114 46 16 13 88 -41 88 -37 0 -56 -28 -68 -103
-6 -38 -20 -96 -31 -131 -22 -68 -110 -196 -134 -196 -41 0 -127 202 -146 346
-20 151 4 277 86 448 68 141 85 199 92 311 8 120 -15 233 -69 345 -33 69 -56
101 -127 170 -137 136 -243 181 -426 179 -55 -1 -117 -5 -139 -10z m-1025
-587 c42 -21 61 -40 87 -82 56 -95 36 -190 -55 -253 -84 -59 -186 -41 -257 47
-27 33 -31 47 -34 112 -4 65 -1 79 22 118 29 50 90 86 147 86 21 0 60 -12 90
-28z m1224 9 c81 -36 130 -121 123 -212 -5 -70 -38 -117 -101 -148 -84 -40
-168 -23 -229 48 -74 87 -75 190 -3 270 54 60 136 76 210 42z m-530 -170 c78
-39 149 -113 165 -172 7 -24 19 -48 28 -55 11 -8 17 -34 20 -97 4 -79 2 -92
-22 -141 -29 -59 -65 -95 -129 -128 -50 -25 -138 -34 -193 -19 -64 17 -131 67
-146 108 -10 28 -25 41 -68 63 -62 31 -136 105 -146 145 -3 14 -4 53 -2 85 5
74 41 128 119 182 109 76 256 87 374 29z"/>
<path d="M4202 6108 c-28 -28 -3 -84 34 -76 28 5 40 33 26 62 -12 28 -40 34
-60 14z"/>
<path d="M5435 6100 c-15 -17 -16 -24 -7 -46 10 -20 18 -25 40 -22 21 2 28 9
30 31 4 30 -12 57 -33 57 -6 0 -20 -9 -30 -20z"/>
<path d="M4795 5912 c-67 -23 -109 -54 -129 -96 -17 -36 -21 -76 -8 -76 4 0
35 20 70 44 97 68 209 84 292 41 17 -9 46 -15 63 -13 l32 3 -40 41 c-67 69
-178 91 -280 56z"/>
<path d="M7352 6708 c-16 -16 -15 -63 2 -77 8 -7 30 -11 48 -9 28 3 33 7 36
31 6 51 -53 88 -86 55z"/>
<path d="M7312 6300 c-57 -35 -77 -111 -46 -176 52 -110 220 -92 255 27 15 49
-2 99 -47 139 -43 37 -110 42 -162 10z"/>
<path d="M2430 5838 c-49 -53 -10 -138 64 -138 73 0 111 76 65 134 -27 35 -98
37 -129 4z"/>
<path d="M3170 5843 c-36 -13 -50 -36 -50 -83 0 -36 5 -52 23 -68 30 -28 85
-29 121 -1 21 17 26 29 26 65 0 71 -55 111 -120 87z"/>
<path d="M7482 5808 c-15 -15 -16 -60 0 -76 16 -16 53 -15 67 2 7 8 11 30 9
48 -3 29 -7 33 -33 36 -17 2 -36 -3 -43 -10z"/>
<path d="M3643 5611 c-68 -31 -210 -129 -271 -187 -47 -44 -54 -55 -42 -64 29
-19 62 -9 125 39 76 58 167 113 219 132 34 12 36 16 36 56 0 49 -6 51 -67 24z"/>
<path d="M7629 5472 c-26 -23 -33 -38 -37 -80 -9 -98 35 -152 122 -152 86 0
135 46 136 128 0 87 -47 132 -139 132 -41 0 -56 -5 -82 -28z"/>
<path d="M2610 5249 c-33 -13 -68 -47 -88 -84 -26 -48 -18 -172 31 -520 59
-413 111 -788 137 -990 35 -271 56 -355 86 -355 17 0 18 62 4 160 -5 36 -18
144 -30 240 -24 204 -58 453 -126 924 -45 314 -51 400 -31 448 19 44 68 78
115 78 42 0 223 -31 413 -71 79 -16 216 -43 304 -60 88 -16 189 -36 225 -44
36 -8 286 -58 555 -110 270 -53 578 -114 687 -136 108 -21 213 -39 235 -39 90
0 202 -72 274 -177 16 -23 36 -43 44 -43 20 0 19 9 -6 75 -24 65 -110 160
-175 193 -43 22 -226 62 -739 161 -170 34 -445 88 -610 121 -165 33 -446 89
-625 124 -179 36 -380 76 -448 90 -130 27 -191 31 -232 15z"/>
<path d="M2972 4937 c-24 -25 -29 -75 -12 -108 26 -48 118 -64 164 -28 64 50
5 159 -86 159 -34 0 -50 -6 -66 -23z"/>
<path d="M2750 4930 c-25 -25 -25 -72 0 -127 18 -41 21 -43 64 -43 56 0 70 21
63 93 -3 39 -11 56 -31 74 -33 28 -70 29 -96 3z"/>
<path d="M7831 4836 c-7 -8 -11 -27 -9 -43 6 -51 88 -41 88 11 0 42 -53 63
-79 32z"/>
<path d="M2786 4614 c-19 -19 -19 -61 -2 -168 11 -65 18 -84 40 -103 30 -25
72 -29 99 -9 21 16 22 52 2 171 -11 69 -19 94 -36 108 -26 21 -82 22 -103 1z"/>
<path d="M7681 4534 c-30 -38 -28 -87 5 -113 62 -49 152 -6 141 66 -9 52 -32
73 -83 73 -34 0 -47 -5 -63 -26z"/>
<path d="M6052 3851 c-96 -33 -164 -121 -166 -216 -1 -75 10 -107 37 -103 20
3 22 10 27 80 4 68 8 80 35 109 62 66 163 86 262 53 51 -17 146 -78 177 -113
25 -27 52 -27 60 2 5 18 -4 32 -49 74 -69 66 -124 98 -200 117 -76 20 -118 20
-183 -3z"/>
<path d="M7166 3279 c-59 -26 -196 -83 -302 -125 -108 -43 -193 -82 -191 -88
2 -6 42 -20 88 -31 46 -12 94 -24 107 -29 29 -10 28 -41 -2 -61 -21 -14 -218
-98 -411 -174 -44 -17 -185 -73 -312 -124 -128 -51 -233 -97 -233 -104 0 -16
26 -29 70 -38 40 -7 181 38 375 120 61 26 139 57 175 70 36 12 137 52 225 88
88 36 228 92 310 125 83 34 233 95 335 136 102 42 229 93 283 112 138 51 131
71 -41 104 -53 10 -151 30 -217 44 -66 14 -127 25 -135 25 -8 -1 -64 -23 -124
-50z"/>
<path d="M6432 2993 l3 -38 95 -19 95 -19 58 22 c31 13 57 26 57 30 0 6 -277
62 -303 61 -5 0 -7 -17 -5 -37z"/>
<path d="M5950 2946 c0 -21 5 -38 13 -40 6 -3 104 -23 217 -46 l205 -42 48 22
c26 11 47 25 47 29 0 5 -109 30 -242 56 -134 26 -253 49 -265 52 -21 5 -23 1
-23 -31z"/>
<path d="M5950 2795 c0 -28 4 -36 23 -40 160 -37 152 -36 202 -15 26 11 53 20
61 20 8 0 14 4 14 8 0 7 -256 62 -288 62 -7 0 -12 -15 -12 -35z"/>
<path d="M5843 2680 c4 -18 7 -39 7 -46 0 -8 10 -14 23 -14 25 0 127 41 127
52 0 4 -26 12 -57 18 -32 6 -69 14 -82 17 -23 6 -24 4 -18 -27z"/>
</g>

<g transform="translate(0.000000,1024.000000) scale(0.100000,-0.100000)"
fill="#cdecfd" stroke="none">
<path d="M2642 5130 c-74 -46 -76 -101 -18 -506 82 -567 123 -872 153 -1146 4
-44 10 -58 22 -58 9 0 33 -18 53 -40 21 -22 55 -47 75 -56 34 -14 175 -45 408
-90 44 -9 136 -28 205 -44 69 -16 195 -43 280 -60 85 -17 245 -51 355 -75 110
-24 265 -57 345 -74 80 -17 282 -60 450 -96 168 -37 339 -74 381 -83 73 -15
77 -15 110 4 29 17 34 26 37 64 2 25 -6 121 -18 215 -11 93 -49 404 -84 690
-36 286 -67 547 -71 580 -16 159 -41 225 -105 276 -22 18 -40 38 -40 46 0 9
-14 13 -46 13 -25 0 -134 18 -242 39 -109 22 -417 83 -687 136 -269 52 -519
102 -555 110 -36 8 -137 28 -225 44 -88 17 -225 44 -304 60 -190 40 -371 71
-413 71 -18 0 -48 -9 -66 -20z m474 -204 c85 -85 -7 -188 -116 -131 -36 18
-50 43 -50 86 0 49 33 79 88 79 37 0 50 -6 78 -34z m-270 1 c20 -18 28 -35 31
-74 7 -72 -7 -93 -63 -93 -43 0 -46 2 -64 43 -25 55 -25 102 0 127 26 26 63
25 96 -3z m43 -314 c17 -14 25 -39 36 -108 20 -119 19 -155 -2 -171 -27 -20
-69 -16 -99 9 -22 19 -29 38 -40 103 -17 107 -17 149 2 168 21 21 77 20 103
-1z m1166 -379 c119 -56 205 -184 205 -304 0 -78 -19 -121 -73 -164 -31 -25
-49 -31 -102 -34 -55 -4 -73 0 -121 23 -68 33 -145 109 -181 178 -35 66 -39
180 -9 240 43 86 170 114 281 61z"/>
<path d="M6004 4167 c-72 -73 -122 -114 -159 -128 l-40 -15 -3 -91 -3 -92 28
-3 c21 -2 39 7 71 34 73 62 125 82 229 86 82 4 144 -4 197 -24 18 -7 21 20 10
89 -5 27 -11 37 -26 37 -10 0 -24 11 -30 25 -9 19 -19 25 -45 25 -18 0 -33 5
-33 10 0 6 -11 10 -25 10 -16 0 -25 6 -25 15 0 11 -11 15 -41 15 -32 0 -42 4
-46 20 -7 28 -23 24 -59 -13z"/>
<path d="M7463 3449 c-7 -7 -13 -18 -13 -24 0 -6 70 -24 167 -43 200 -38 243
-59 283 -139 l25 -52 95 0 c105 -1 129 8 155 59 15 30 20 136 7 156 -4 7 -88
16 -227 23 -121 6 -247 14 -280 17 -184 15 -200 15 -212 3z"/>
<path d="M2190 3403 c-120 -4 -130 -11 -130 -89 0 -56 3 -65 31 -93 l31 -31
259 0 c142 0 259 3 259 7 0 3 -11 34 -24 67 -13 34 -27 80 -31 104 l-7 42
-151 -2 c-84 -1 -190 -3 -237 -5z"/>
<path d="M6280 3041 c0 -12 -4 -21 -10 -21 -5 0 -10 -6 -10 -14 0 -14 27 -22
133 -41 l37 -7 0 40 0 39 -52 7 c-29 4 -63 10 -75 13 -18 4 -23 1 -23 -16z"/>
<path d="M5890 2970 c-8 -5 -27 -10 -42 -10 -18 0 -28 -5 -28 -14 0 -14 11
-18 93 -32 l37 -6 0 36 c0 31 -3 36 -22 36 -13 0 -30 -5 -38 -10z"/>
<path d="M5830 2822 l0 -40 50 -11 c71 -15 70 -15 70 28 0 38 0 39 -46 46 -26
3 -53 9 -60 12 -11 4 -14 -5 -14 -35z"/>
<path d="M2623 2588 l-91 -10 -7 -43 c-3 -24 -3 -61 1 -81 l7 -37 206 7 c113
4 206 8 207 9 1 1 4 39 8 85 l6 82 -122 -1 c-68 -1 -164 -6 -215 -11z"/>
<path d="M3580 2415 c-9 -11 -32 -15 -80 -15 -37 0 -101 -3 -143 -6 l-77 -7 0
-73 0 -74 148 0 148 0 12 34 c11 30 18 35 59 41 79 12 93 22 93 72 l0 43 -74
0 c-53 0 -77 -4 -86 -15z"/>
</g>

<g transform="translate(0.000000,1024.000000) scale(0.100000,-0.100000)"
fill="#002928" stroke="none">
<path d="M5640 7444 c0 -59 -3 -70 -26 -90 -14 -13 -30 -24 -36 -24 -5 0 -24
-6 -41 -14 -18 -8 -44 -17 -58 -20 -14 -3 -38 -17 -53 -31 -15 -14 -36 -25
-47 -25 -10 0 -19 -4 -19 -10 0 -5 -11 -10 -24 -10 -14 0 -28 -4 -31 -10 -3
-5 -19 -10 -35 -10 -15 0 -30 -7 -34 -15 -4 -11 -21 -15 -60 -15 -39 0 -55 -4
-60 -15 -3 -8 -12 -15 -21 -15 -9 0 -15 -9 -15 -25 0 -23 -3 -25 -50 -25 -27
0 -50 -4 -50 -10 0 -5 -7 -10 -16 -10 -29 0 -112 -32 -133 -51 -11 -10 -34
-19 -51 -19 -28 0 -30 -2 -30 -38 0 -28 -7 -45 -24 -61 -25 -24 -44 -24 -116
-6 -18 5 -32 0 -49 -14 -13 -12 -27 -21 -31 -21 -4 0 -10 -9 -13 -20 -3 -13
-14 -20 -30 -20 -32 0 -57 -34 -57 -75 0 -26 7 -34 58 -60 31 -16 84 -57 117
-91 57 -57 77 -90 140 -227 32 -69 70 -97 133 -97 68 0 95 26 156 154 71 147
135 215 259 276 85 42 92 44 200 48 204 8 316 -35 458 -177 70 -70 94 -102
127 -171 54 -112 77 -225 69 -345 -7 -112 -24 -170 -92 -311 -82 -171 -106
-297 -86 -448 19 -144 105 -346 146 -346 24 0 112 128 134 196 11 35 25 93 31
131 6 37 18 76 27 85 21 24 66 23 87 -1 17 -18 17 -26 1 -132 -9 -61 -24 -133
-34 -159 -40 -106 -135 -218 -263 -313 -42 -31 -80 -61 -83 -67 -3 -5 -29 -10
-56 -10 -59 0 -64 -8 -63 -95 0 -70 16 -105 74 -163 69 -68 129 -86 295 -87
134 0 144 2 236 33 217 77 360 217 434 430 19 52 19 52 62 52 l43 0 0 -39 c0
-87 -62 -225 -147 -329 -47 -57 -156 -132 -243 -168 l-70 -29 7 -45 c11 -65 8
-207 -7 -260 -17 -66 -61 -160 -74 -160 -6 0 -36 19 -66 41 -30 23 -80 54
-110 68 -50 24 -66 26 -175 26 -104 0 -126 -3 -166 -23 -143 -70 -227 -216
-202 -350 6 -31 14 -65 18 -74 6 -15 2 -18 -23 -18 -33 0 -38 10 -44 100 l-3
35 -77 3 c-93 3 -87 23 -57 -199 36 -272 69 -572 69 -631 0 -31 -5 -69 -12
-85 -7 -15 -15 -68 -18 -118 l-5 -90 -65 -3 c-52 -2 -160 18 -535 98 -258 56
-562 121 -675 145 -113 24 -279 60 -370 80 -91 20 -248 54 -350 75 -102 22
-280 59 -396 84 -136 28 -229 53 -262 70 -47 24 -52 29 -52 60 0 31 -4 36 -36
46 -56 19 -138 132 -163 225 -5 22 -22 128 -36 235 -34 258 -86 633 -142 1025
-62 439 -61 507 9 572 54 50 105 54 280 17 68 -14 269 -54 448 -90 179 -35
460 -91 625 -124 165 -33 440 -87 610 -121 483 -93 696 -139 729 -156 48 -24
112 -80 143 -123 24 -34 33 -40 66 -40 l39 0 -6 48 c-9 84 -18 122 -28 122 -5
0 -21 13 -34 30 -64 76 -177 108 -769 221 -115 22 -399 78 -630 124 -231 46
-474 93 -540 104 -66 12 -250 48 -410 81 -491 101 -505 102 -622 59 -46 -18
-55 -26 -78 -73 -49 -101 -48 -119 45 -796 22 -162 65 -479 95 -703 60 -446
66 -476 97 -551 61 -143 146 -238 261 -290 101 -46 117 -51 357 -100 118 -25
303 -63 410 -86 107 -23 267 -57 355 -75 237 -50 434 -92 580 -125 222 -50
350 -78 640 -140 154 -33 372 -80 485 -105 262 -57 277 -58 345 -46 48 9 441
160 795 306 141 58 519 210 763 305 231 91 266 112 297 175 43 88 4 208 -83
259 -39 23 -328 87 -607 136 -119 20 -125 27 -51 54 71 25 248 145 307 207 99
105 164 211 164 270 0 25 0 25 -87 25 -78 -1 -94 2 -147 29 -33 16 -61 38 -64
47 -3 13 -14 18 -43 18 l-39 0 0 78 c1 42 7 106 16 142 21 91 30 401 15 515
-17 131 -53 266 -131 505 -39 116 -70 217 -70 224 0 12 -94 272 -141 392 -7
17 -9 43 -5 57 5 23 12 27 41 27 33 0 35 2 35 34 0 42 -21 146 -57 279 l-26
97 -32 0 c-18 0 -37 6 -43 13 -5 6 -44 77 -86 155 -94 177 -149 258 -266 389
-64 72 -90 109 -90 127 0 22 -5 26 -28 26 -22 0 -96 42 -122 70 -3 3 -16 12
-30 20 -14 8 -61 36 -105 62 -131 79 -409 188 -477 188 -15 0 -18 -10 -18 -66z
m595 -3590 c81 -21 138 -56 213 -130 81 -81 114 -151 120 -256 l5 -78 -32 0
c-17 0 -31 -4 -31 -8 0 -22 -87 -93 -133 -108 -148 -49 -375 46 -448 188 -31
60 -50 148 -43 193 14 90 79 166 166 196 65 23 107 23 183 3z m855 -484 c160
-30 303 -58 430 -85 63 -13 142 -29 174 -36 67 -13 106 -45 106 -90 0 -35 -33
-62 -103 -85 -29 -9 -196 -75 -372 -147 -176 -72 -385 -156 -465 -188 -80 -31
-179 -70 -220 -87 -41 -17 -138 -55 -215 -86 -77 -30 -189 -75 -250 -100 -118
-49 -171 -56 -228 -32 -35 14 -62 48 -73 90 -5 20 -2 26 9 26 9 0 130 45 269
101 139 56 314 125 388 154 169 66 298 122 328 141 31 20 28 49 -5 62 -33 12
-150 39 -397 90 -106 22 -181 42 -184 50 -2 7 6 12 22 12 41 0 174 46 209 73
18 14 66 34 107 46 41 12 127 41 190 66 63 24 129 44 145 44 17 0 77 -8 135
-19z m-1135 -89 c57 -53 82 -67 175 -98 10 -4 11 -7 3 -10 -18 -7 -337 67
-345 80 -4 7 -8 29 -8 50 l0 37 56 0 c55 0 58 -1 119 -59z m62 -161 c109 -23
223 -47 253 -54 30 -8 148 -31 263 -52 114 -21 207 -41 207 -45 0 -4 -26 -17
-57 -29 l-58 -22 -405 81 c-223 45 -408 81 -412 81 -5 0 -8 18 -8 40 0 22 4
40 9 40 5 0 99 -18 208 -40z m-137 -134 c0 -11 9 -13 34 -9 38 6 566 -94 566
-108 0 -4 -21 -18 -47 -29 l-48 -21 -175 36 c-96 20 -222 45 -279 56 -57 10
-106 20 -108 22 -1 2 -6 18 -9 35 -6 31 -6 32 30 32 25 0 36 -5 36 -14z m173
-172 c108 -21 197 -42 197 -46 0 -4 -6 -8 -14 -8 -8 0 -35 -9 -61 -20 -46 -20
-46 -20 -138 0 -51 10 -118 24 -149 30 l-58 11 0 41 c0 28 4 39 13 36 6 -3
101 -22 210 -44z m-110 -124 c31 -6 57 -14 57 -18 0 -11 -102 -52 -127 -52
-13 0 -23 6 -23 14 0 7 -3 28 -7 46 -6 31 -5 33 18 27 13 -3 50 -11 82 -17z"/>
<path d="M4192 6159 c-28 -14 -51 -36 -68 -65 -23 -39 -26 -53 -22 -118 3 -65
7 -79 34 -112 71 -88 173 -106 257 -47 91 63 111 158 55 253 -26 42 -45 61
-87 82 -64 34 -111 35 -169 7z m70 -65 c9 -18 9 -30 1 -42 -22 -36 -73 -21
-73 22 0 48 53 63 72 20z"/>
<path d="M5442 6167 c-61 -19 -122 -110 -122 -181 0 -67 65 -167 127 -192 76
-32 179 -4 230 63 33 43 43 130 21 183 -46 109 -151 161 -256 127z m47 -61 c7
-8 11 -27 9 -43 -2 -22 -9 -29 -30 -31 -22 -3 -30 2 -40 22 -9 22 -8 29 7 46
21 24 38 25 54 6z"/>
<path d="M3701 5753 l4 -277 -55 -19 c-67 -24 -201 -109 -189 -121 2 -3 130
-30 284 -61 154 -32 290 -59 303 -62 22 -5 22 -4 22 88 0 145 -19 212 -114
409 -47 96 -95 208 -107 248 l-21 72 -65 0 -66 0 4 -277z"/>
<path d="M4790 6015 c-69 -19 -154 -77 -193 -133 -24 -33 -32 -56 -35 -102 -2
-32 -1 -71 2 -85 10 -41 85 -114 151 -148 52 -26 73 -31 160 -35 85 -3 108 -1
158 18 145 55 219 169 187 289 -16 59 -87 134 -165 172 -77 38 -181 47 -265
24z m191 -101 c39 -12 66 -28 97 -60 38 -40 42 -49 42 -95 0 -91 -64 -144
-184 -156 -131 -12 -286 66 -286 144 0 77 48 132 145 165 63 22 116 22 186 2z"/>
<path d="M4925 5737 c-39 -19 -87 -39 -107 -46 -21 -7 -38 -16 -38 -21 0 -14
126 -22 168 -11 57 16 92 46 92 82 0 39 -26 38 -115 -4z"/>
<path d="M3834 4235 c-58 -35 -79 -81 -79 -175 1 -62 6 -84 28 -127 36 -69
113 -145 181 -178 48 -23 66 -27 121 -23 112 7 175 78 175 198 0 120 -86 248
-205 304 -74 36 -163 36 -221 1z"/>
</g>

<g transform="translate(0.000000,1024.000000) scale(0.100000,-0.100000)"
fill="#70e2ff" stroke="none">
<path d="M4865 8074 c-549 -57 -1006 -215 -1450 -502 -412 -266 -760 -654
-1023 -1142 -112 -208 -246 -611 -296 -894 l-7 -38 140 4 c130 3 141 5 159 26
11 12 27 22 36 22 9 0 16 5 16 10 0 6 6 10 13 10 7 0 20 9 30 20 14 16 29 20
86 20 86 0 131 9 131 26 0 16 18 21 107 30 47 4 74 11 77 20 3 8 19 14 36 14
16 0 30 5 30 10 0 6 35 10 85 10 l85 0 0 43 c0 52 20 75 74 84 41 6 81 -14 91
-47 6 -19 14 -20 211 -20 l204 0 -2 288 c-3 304 5 385 52 535 11 34 20 74 20
90 0 36 73 180 151 297 96 144 315 353 434 413 17 8 46 33 66 55 20 22 54 49
77 61 74 38 366 130 468 148 141 24 511 24 643 -1 191 -35 380 -110 576 -229
l90 -54 -3 -74 -3 -74 49 -32 c43 -30 56 -33 120 -33 l71 0 81 -92 c165 -189
284 -407 357 -658 37 -125 73 -290 73 -332 0 -37 -1 -38 -35 -38 -29 0 -36 -4
-41 -26 -4 -15 -3 -37 2 -50 5 -12 38 -102 74 -198 l65 -175 49 -3 50 -3 15
-49 15 -48 213 7 c132 4 213 4 213 -2 0 -6 24 -8 55 -5 54 4 115 -11 115 -29
0 -8 329 -1 338 6 2 2 -6 55 -18 119 -144 795 -597 1488 -1271 1946 -396 269
-826 437 -1319 515 -101 17 -573 29 -675 19z m-991 -576 c20 -29 20 -82 0
-102 -44 -45 -113 -25 -128 36 -14 56 11 88 69 88 34 0 47 -5 59 -22z m2884
-97 c8 -5 12 -22 10 -42 -3 -32 -5 -34 -43 -34 -36 0 -40 3 -43 28 -6 47 36
74 76 48z m-3275 -155 c18 -7 47 -30 65 -50 29 -33 32 -43 32 -100 0 -49 -5
-70 -22 -96 -64 -93 -211 -93 -274 -1 -19 28 -24 48 -24 98 0 56 3 66 32 99
54 61 123 79 191 50z m3635 -186 c27 -25 30 -85 5 -112 -20 -23 -80 -24 -105
-1 -27 24 -25 97 4 117 31 22 70 20 96 -4z m-3923 -324 c72 -33 148 -106 181
-173 32 -64 42 -164 25 -243 -10 -45 -9 -65 6 -123 18 -68 18 -69 -2 -84 -15
-11 -36 -13 -90 -8 -61 5 -79 3 -140 -20 -145 -55 -308 -17 -409 96 -140 156
-105 414 72 528 103 66 248 77 357 27z m4229 -35 c10 -11 16 -31 14 -48 -3
-24 -8 -28 -36 -31 -41 -4 -62 12 -62 47 0 50 50 69 84 32z m50 -411 c45 -40
62 -90 47 -139 -35 -119 -203 -137 -255 -27 -46 97 17 196 126 196 38 0 54 -6
82 -30z m-4915 -456 c46 -58 8 -134 -65 -134 -74 0 -113 85 -64 138 31 33 102
31 129 -4z m4999 -52 c4 -39 -12 -62 -42 -62 -29 0 -46 18 -46 50 0 35 19 52
55 48 26 -3 30 -7 33 -36z"/>
<path d="M3076 2224 c-19 -18 -21 -65 -4 -82 17 -17 819 -17 836 0 20 20 14
65 -10 82 -19 14 -76 16 -415 16 -343 0 -394 -2 -407 -16z"/>
</g>

<g transform="translate(0.000000,1024.000000) scale(0.100000,-0.100000)"
fill="#ffb13b" stroke="none">
<path d="M4830 5839 c-44 -13 -179 -100 -180 -116 0 -6 19 -28 42 -48 115 -98
336 -96 407 4 15 20 21 44 21 80 l0 51 -35 0 c-20 0 -50 7 -68 16 -38 20 -139
27 -187 13z m210 -98 c0 -36 -35 -66 -92 -82 -42 -11 -168 -3 -168 11 0 5 17
14 38 21 20 7 68 27 107 46 89 42 115 43 115 4z"/>
<path d="M6055 3771 c-22 -10 -53 -33 -70 -50 -27 -29 -31 -41 -35 -109 -5
-69 -7 -77 -27 -82 l-23 -5 24 -50 c71 -152 298 -253 453 -201 46 15 133 86
133 108 0 4 14 8 31 8 l32 0 -5 79 c-4 61 -11 92 -34 137 -29 57 -54 81 -54
50 0 -23 -34 -20 -56 5 -31 35 -126 96 -177 113 -63 21 -142 20 -192 -3z"/>
</g>

<g transform="translate(0.000000,1024.000000) scale(0.100000,-0.100000)"
fill="#5dd0ff" stroke="none">
<path d="M2918 6459 c-26 -15 -25 -85 1 -99 29 -15 56 -12 74 8 48 52 -15 127
-75 91z"/>
<path d="M3089 6436 c-16 -35 -4 -74 25 -82 33 -8 64 11 72 43 10 37 -7 57
-49 61 -31 3 -39 -1 -48 -22z"/>
<path d="M3290 5746 c0 -70 -100 -104 -150 -51 -21 23 -31 25 -107 25 -49 0
-83 -4 -83 -10 0 -5 -14 -10 -30 -10 -17 0 -33 -6 -36 -14 -3 -9 -30 -16 -77
-20 -89 -9 -107 -14 -107 -30 0 -17 -45 -26 -131 -26 -57 0 -72 -4 -86 -20
-10 -11 -23 -20 -30 -20 -7 0 -13 -4 -13 -10 0 -5 -7 -10 -16 -10 -9 0 -25
-10 -36 -22 -18 -21 -30 -23 -158 -26 l-138 -4 -6 -32 c-22 -130 -31 -272 -31
-516 0 -233 4 -297 22 -415 25 -158 68 -333 118 -480 60 -177 85 -221 102
-179 10 26 133 113 170 120 30 6 33 9 29 33 -3 14 -21 143 -41 286 -20 143
-44 323 -55 400 -60 436 -61 487 -15 581 23 47 32 55 78 73 116 43 140 41 602
-55 143 -30 263 -54 268 -54 13 0 8 98 -5 104 -36 14 233 217 336 254 l48 17
-6 50 c-3 28 -6 60 -6 73 l0 22 -205 0 -205 0 0 -34z"/>
<path d="M7328 5503 c-60 -2 -108 -6 -108 -9 0 -3 15 -51 34 -108 53 -156 101
-329 127 -451 22 -98 24 -135 24 -350 -1 -189 -4 -256 -18 -314 -12 -53 -14
-77 -6 -82 6 -4 50 -17 98 -29 143 -37 290 -117 422 -231 62 -54 73 -58 84
-31 100 251 168 521 195 782 15 151 11 516 -8 660 l-17 125 -60 3 c-33 2 -106
1 -163 -3 -91 -6 -102 -9 -96 -24 14 -31 16 -102 4 -131 -18 -43 -67 -70 -127
-70 -58 0 -93 22 -113 70 -18 43 -8 125 19 153 46 50 49 50 -291 40z m570
-665 c16 -16 15 -53 -2 -67 -8 -7 -27 -11 -43 -9 -51 6 -41 88 11 88 12 0 27
-5 34 -12z m-94 -297 c9 -10 19 -34 23 -54 11 -72 -79 -115 -141 -66 -33 26
-35 75 -5 113 16 21 29 26 63 26 29 0 48 -6 60 -19z"/>
<path d="M6935 4798 c-26 -75 -63 -147 -98 -191 -16 -21 -28 -39 -26 -40 8 -5
100 -27 114 -27 34 0 115 190 115 271 l0 39 -43 0 c-43 0 -43 0 -62 -52z"/>
<path d="M5780 3303 c0 -21 4 -43 8 -50 8 -13 327 -87 345 -80 8 3 7 6 -3 10
-93 31 -118 45 -175 98 -61 58 -64 59 -119 59 l-56 0 0 -37z"/>
<path d="M6560 3262 c-8 -4 -33 -19 -55 -34 -43 -28 -161 -68 -202 -68 -15 0
-23 -5 -21 -12 4 -11 270 -76 316 -78 9 0 12 26 12 100 0 89 -2 100 -17 99
-10 0 -25 -3 -33 -7z"/>
<path d="M2658 2423 c-65 -2 -118 -7 -118 -12 0 -5 9 -19 19 -32 19 -24 23
-24 220 -27 147 -2 201 0 201 8 0 7 -8 25 -17 41 -19 33 14 30 -305 22z"/>
</g>

<g transform="translate(0.000000,1024.000000) scale(0.100000,-0.100000)"
fill="#97cff3" stroke="none">
<path d="M5140 7593 c-14 -2 -74 -10 -134 -19 -60 -8 -151 -29 -203 -45 -84
-27 -93 -32 -93 -54 0 -30 -3 -30 92 0 346 110 768 95 1099 -40 118 -48 234
-107 306 -156 54 -37 63 -36 63 6 0 30 -3 35 -24 35 -14 0 -37 11 -53 24 -114
96 -433 206 -693 240 -114 15 -297 19 -360 9z"/>
<path d="M4278 7246 c-83 -69 -217 -204 -276 -278 -25 -32 -50 -58 -57 -58
-12 0 -118 -171 -130 -210 -5 -17 -2 -20 24 -20 27 0 35 8 70 68 100 171 287
378 422 467 50 33 69 51 65 62 -3 8 -6 17 -6 19 0 2 -10 4 -23 4 -13 0 -51
-23 -89 -54z"/>
<path d="M4691 6978 c-19 -22 -47 -42 -63 -45 -34 -7 -35 -17 -6 -37 56 -40
128 -3 128 66 0 56 -19 61 -59 16z"/>
<path d="M5225 5733 c-15 -89 -84 -162 -192 -203 -50 -19 -73 -21 -160 -18
-70 3 -103 1 -103 -6 1 -25 29 -60 70 -87 139 -94 331 -45 404 103 21 42 26
65 25 122 -1 39 -4 82 -8 95 -11 39 -28 36 -36 -6z"/>
<path d="M3625 5509 c-67 -35 -130 -76 -191 -126 -24 -19 -52 -33 -68 -33 -26
0 -27 -2 -24 -47 l3 -48 155 -27 c85 -15 335 -63 555 -107 220 -44 495 -98
610 -120 592 -113 705 -145 769 -221 30 -36 75 -41 94 -9 11 18 9 25 -17 58
-41 51 -127 109 -198 133 -32 10 -137 34 -233 53 -193 38 -434 86 -700 141
-96 19 -215 41 -265 48 -103 16 -647 125 -654 132 -12 12 122 97 189 120 50
18 55 23 58 52 4 40 -6 40 -83 1z"/>
<path d="M6366 5278 c-2 -7 -15 -56 -28 -108 -28 -114 -87 -212 -182 -303 -57
-54 -64 -58 -97 -53 -28 5 -43 1 -64 -16 -29 -22 -85 -95 -85 -110 0 -4 21 -8
46 -8 36 0 54 6 79 28 18 15 65 52 104 82 81 61 166 163 205 242 25 51 56 181
56 234 0 25 -27 35 -34 12z"/>
<path d="M5180 4672 c0 -5 18 -23 40 -41 64 -51 89 -117 105 -276 4 -33 35
-294 71 -580 35 -286 73 -597 84 -690 12 -94 20 -190 18 -215 -3 -38 -8 -47
-37 -64 -33 -19 -37 -19 -110 -4 -42 9 -213 46 -381 83 -168 36 -370 79 -450
96 -80 17 -235 50 -345 74 -110 24 -270 58 -355 75 -85 17 -211 44 -280 60
-69 16 -161 35 -205 44 -233 45 -374 76 -408 90 -20 9 -54 34 -75 56 -52 56
-62 52 -62 -19 0 -39 -4 -61 -12 -63 -21 -7 69 -118 111 -136 20 -8 115 -32
211 -53 96 -20 240 -51 320 -68 80 -18 251 -54 380 -81 129 -27 278 -58 330
-69 273 -59 590 -127 795 -170 127 -27 307 -66 402 -86 111 -24 184 -35 205
-31 88 16 137 85 138 189 0 84 -106 966 -177 1476 -25 176 -29 194 -49 201
-12 5 -31 24 -43 43 -30 49 -122 133 -166 151 -42 18 -55 20 -55 8z"/>
<path d="M6774 4529 c-48 -50 -174 -125 -269 -160 -85 -31 -98 -33 -227 -33
-95 -1 -138 -5 -138 -12 0 -6 -18 -34 -41 -63 -53 -67 -51 -95 9 -99 28 -2 42
-8 42 -18 0 -8 10 -14 25 -14 14 0 25 -4 25 -10 0 -5 15 -10 33 -10 26 0 36
-6 45 -25 6 -14 20 -25 30 -25 20 0 32 -39 32 -106 0 -22 6 -34 23 -41 12 -6
47 -29 77 -52 30 -22 60 -41 66 -41 13 0 57 94 74 160 15 53 18 195 7 260 l-7
45 70 29 c89 36 197 111 245 171 21 25 36 47 34 48 -9 7 -88 27 -106 27 -10 0
-32 -14 -49 -31z"/>
<path d="M7346 4119 c-7 -38 -6 -40 59 -72 64 -32 112 -41 180 -32 43 5 55 10
55 24 0 31 -22 41 -94 41 -55 0 -83 6 -126 26 -30 14 -57 30 -61 35 -3 6 -9
-4 -13 -22z"/>
<path d="M7236 3544 c-10 -7 -40 -21 -67 -30 -74 -27 -67 -34 51 -54 36 -6
100 -18 142 -27 l78 -16 19 24 c29 35 27 67 -6 80 -72 27 -194 40 -217 23z"/>
<path d="M6798 3340 c-69 -26 -140 -51 -158 -55 l-31 -7 3 -106 c3 -104 4
-107 27 -110 13 -2 27 1 30 7 4 5 76 38 161 71 236 94 440 181 440 190 0 4
-15 10 -32 13 -18 3 -82 15 -143 26 -60 11 -123 21 -140 20 -16 0 -87 -22
-157 -49z"/>
<path d="M7740 3179 c-229 -91 -762 -305 -985 -396 -88 -36 -189 -76 -225 -88
-36 -13 -114 -44 -175 -70 -60 -25 -162 -64 -224 -86 -125 -44 -175 -45 -212
-8 -29 29 -53 25 -45 -7 11 -42 38 -76 73 -90 57 -24 110 -17 228 32 61 25
173 70 250 100 77 31 174 69 215 86 41 17 140 56 220 87 80 32 289 116 465
188 176 72 343 138 372 147 70 23 103 50 103 86 0 38 -7 40 -60 19z"/>
<path d="M5800 3120 c0 -22 4 -40 8 -40 8 0 383 -74 430 -85 15 -4 22 -1 22
10 0 8 5 15 10 15 12 0 14 37 2 44 -8 5 -446 96 -462 96 -6 0 -10 -18 -10 -40z"/>
<path d="M5810 2980 c0 -16 7 -20 35 -20 28 0 35 4 35 20 0 16 -7 20 -35 20
-28 0 -35 -4 -35 -20z"/>
<path d="M2845 2939 c-17 -17 -17 -21 -5 -29 8 -5 24 -10 34 -10 50 0 159 -83
201 -153 9 -15 15 -15 70 4 72 25 169 21 237 -9 44 -19 107 -72 125 -106 10
-19 12 -19 46 -3 19 10 59 17 90 17 94 0 165 -68 176 -169 l6 -56 60 -12 c136
-28 461 -96 630 -133 1000 -217 1119 -240 1237 -240 49 0 110 5 136 11 75 19
1980 787 2008 810 35 29 1 60 -82 78 -50 10 -55 9 -225 -58 -217 -85 -600
-238 -739 -296 -354 -146 -747 -297 -795 -306 -68 -12 -83 -11 -345 46 -113
25 -331 72 -485 105 -290 62 -418 90 -640 140 -146 33 -343 75 -580 125 -88
18 -248 52 -355 75 -107 23 -294 62 -415 87 -121 24 -253 58 -293 74 -41 16
-74 29 -75 28 -1 0 -11 -9 -22 -20z"/>
<path d="M2427 2842 c-41 -45 -6 -82 79 -82 56 0 62 2 97 38 56 57 51 62 -61
62 -83 0 -102 -3 -115 -18z"/>
</g>

<g transform="translate(0.000000,1024.000000) scale(0.100000,-0.100000)"
fill="#0c343a" stroke="none">
<path d="M5082 7539 c-75 -10 -274 -58 -326 -78 -23 -9 -27 -15 -21 -34 30
-99 6 -186 -64 -233 -82 -54 -195 -38 -249 36 l-22 29 -51 -31 c-136 -85 -329
-294 -434 -470 l-46 -78 -48 0 -48 0 -22 -72 c-11 -40 -28 -111 -36 -158 -18
-102 -31 -332 -21 -383 l7 -37 65 0 65 0 -8 38 c-4 20 -8 87 -7 147 0 92 5
122 27 183 52 149 133 249 245 304 62 31 73 33 172 33 58 0 120 -4 138 -8 31
-8 32 -7 32 20 0 40 26 73 57 73 16 0 27 7 30 20 3 11 9 20 13 20 4 0 17 9 30
20 13 11 29 20 36 20 10 0 11 6 4 26 -16 42 -11 73 15 99 31 32 66 32 103 0
36 -30 85 -33 113 -6 21 19 104 51 133 51 9 0 16 5 16 10 0 6 23 10 50 10 47
0 50 2 50 25 0 16 6 25 15 25 9 0 18 7 21 15 5 11 21 15 60 15 39 0 56 4 60
15 4 8 19 15 34 15 16 0 32 5 35 10 3 6 17 10 31 10 13 0 24 5 24 10 0 6 9 10
19 10 11 0 32 11 47 25 15 14 39 28 53 31 14 3 40 12 58 20 17 8 36 14 41 14
6 0 22 11 36 24 23 21 26 31 26 93 l0 71 -77 11 c-107 16 -392 22 -481 10z"/>
<path d="M6420 7144 c0 -18 26 -55 90 -127 117 -131 172 -212 266 -389 42 -78
81 -149 86 -155 14 -17 68 -17 68 0 0 23 -77 205 -125 294 -64 121 -122 204
-215 311 -79 90 -81 92 -125 92 -42 0 -45 -2 -45 -26z"/>
<path d="M7090 5581 c0 -11 31 -115 70 -231 78 -239 114 -374 131 -505 15
-114 6 -424 -15 -515 -9 -36 -15 -100 -16 -142 l0 -78 43 0 42 0 23 88 c37
145 44 222 40 435 -3 162 -9 223 -27 307 -30 134 -79 304 -145 500 l-53 155
-46 3 c-42 3 -47 1 -47 -17z"/>
<path d="M5524 4765 c-4 -8 -15 -15 -26 -15 -18 0 -19 -4 -14 -37 4 -21 10
-59 12 -85 l6 -48 -36 0 c-20 0 -36 -2 -36 -4 0 -2 7 -23 16 -47 17 -49 57
-317 100 -667 l29 -232 78 0 77 0 0 28 c0 15 -12 108 -25 207 -32 232 -72 551
-80 640 -10 98 -22 151 -52 218 -26 58 -39 69 -49 42z"/>
<path d="M2930 3110 c0 -47 67 -74 314 -126 116 -25 294 -62 396 -84 102 -21
259 -55 350 -75 91 -20 257 -56 370 -80 113 -24 417 -89 675 -145 375 -80 483
-100 535 -98 l65 3 3 77 3 78 -37 -25 c-60 -41 -89 -41 -277 0 -95 20 -275 59
-402 86 -205 43 -522 111 -795 170 -52 11 -201 42 -330 69 -129 27 -298 63
-375 80 -275 59 -470 100 -482 100 -8 0 -13 -13 -13 -30z"/>
</g>
</svg>